<svg id="Layer_1" data-name="Layer 1" xmlns="http://www.w3.org/2000/svg" viewBox="0 0 657.42 469.01"><defs><style>.cls-1{fill:#3b9da1;}.cls-2{fill:#2f7d80;}.cls-3{fill:#d0f1f2;}.cls-4{fill:#8dc2c4;}.cls-5{fill:#fff;}.cls-6{fill:#3b3e54;}.cls-7{fill:#7c7f94;}.cls-8{fill:#292b3b;}.cls-9{fill:#fe5e5a;}.cls-10{fill:#ff8b87;}.cls-11{fill:#eb4844;}.cls-12{fill:#ed976d;}.cls-13{fill:#f6b291;}.cls-14{fill:#1a1c2e;}.cls-15{fill:#e6e6e6;}.cls-16{fill:#603813;}.cls-17{fill:#c74a46;}.cls-18{fill:#c69c6d;}.cls-19{fill:#222330;}.cls-20{fill:#e89f7b;}</style></defs><path class="cls-1" d="M411.41,418.89a34.44,34.44,0,0,0-33.11,25h66.23A34.44,34.44,0,0,0,411.41,418.89Z" transform="translate(-24.09 -12.91)"/><path class="cls-1" d="M501.76,418.89a34.45,34.45,0,0,0-33.12,25h66.23A34.44,34.44,0,0,0,501.76,418.89Z" transform="translate(-24.09 -12.91)"/><path class="cls-1" d="M458.72,408.19a49.21,49.21,0,0,0-47.31,35.66H506A49.21,49.21,0,0,0,458.72,408.19Z" transform="translate(-24.09 -12.91)"/><path class="cls-2" d="M607.37,481.93H48.63a18.69,18.69,0,0,1-18.69-18.7h0a18.7,18.7,0,0,1,18.69-18.7H607.37a18.7,18.7,0,0,1,18.69,18.7h0A18.69,18.69,0,0,1,607.37,481.93Z" transform="translate(-24.09 -12.91)"/><polygon class="cls-3" points="260.93 394.27 258.29 429 349.53 429 346.89 394.27 260.93 394.27"/><polygon class="cls-4" points="345.44 375.21 262.38 375.21 260.93 394.27 346.89 394.27 345.44 375.21"/><path class="cls-5" d="M243.16,425.93h121.5a7.85,7.85,0,0,1,7.85,7.85v7.13a0,0,0,0,1,0,0H235.32a0,0,0,0,1,0,0v-7.13A7.85,7.85,0,0,1,243.16,425.93Z"/><path class="cls-6" d="M529.81,102.17H126.19a12.33,12.33,0,0,0-12.32,12.32V356.81H542.12V114.49A12.32,12.32,0,0,0,529.81,102.17Z" transform="translate(-24.09 -12.91)"/><path class="cls-5" d="M367.83,356.81H113.88V386a12.31,12.31,0,0,0,12.31,12.32H529.81A12.32,12.32,0,0,0,542.13,386V356.81Z" transform="translate(-24.09 -12.91)"/><polygon class="cls-7" points="254.49 104.24 104.77 104.24 104.77 253.96 104.77 326.86 500.33 326.86 500.33 104.24 254.49 104.24"/><path class="cls-8" d="M190,166.49a2,2,0,0,0-2,2v20.72H157V168.49a2,2,0,0,0-4,0V464.54a2,2,0,0,0,4,0V445.17H188v19.37a2,2,0,0,0,4,0v-296A2,2,0,0,0,190,166.49Zm-2,95.44v18.9H157v-18.9Zm-30.94-4V239H188v18.91ZM188,284.83v18.91H157V284.83Zm0,22.91v18.9H157v-18.9Zm0,22.9v18.91H157V330.64Zm0,22.91v18.9H157v-18.9Zm0,22.9v18.91H157V376.45ZM188,235H157v-18.9H188ZM157,399.36H188v18.9H157ZM188,193.21v18.91H157V193.21ZM157,441.17V422.26H188v18.91Z" transform="translate(-24.09 -12.91)"/><rect class="cls-9" x="235.32" y="199.2" width="137.19" height="127.98"/><rect class="cls-10" x="235.32" y="175.42" width="137.19" height="23.78"/><rect class="cls-11" x="260.24" y="182.98" width="87.33" height="8.67" rx="4.33"/><polygon class="cls-5" points="308.38 81.7 248.65 160.87 289.44 191.65 313.96 191.65 364.8 124.26 308.38 81.7"/><path class="cls-10" d="M320.63,149.05,310,141l8-10.64,10.64,8Zm-7.84-8.42,7.45,5.62,5.62-7.45-7.45-5.62Z" transform="translate(-24.09 -12.91)"/><path class="cls-10" d="M335.49,127.69l-9.05-6.82a1,1,0,0,1-.19-1.4l6.82-9a1,1,0,0,1,1.41-.2l9,6.83a1,1,0,0,1,.2,1.4l-6.83,9A1,1,0,0,1,335.49,127.69Zm-7-7.82,7.45,5.62,5.62-7.45-7.45-5.62Z" transform="translate(-24.09 -12.91)"/><path class="cls-10" d="M304.17,169.2l-9-6.82a1,1,0,0,1-.2-1.4l6.83-9a1,1,0,0,1,1.4-.2l9,6.83a1,1,0,0,1,.2,1.4l-6.83,9A1,1,0,0,1,304.17,169.2Zm-7-7.82,7.45,5.63,5.62-7.46-7.45-5.62Z" transform="translate(-24.09 -12.91)"/><rect class="cls-10" x="342.34" y="131.99" width="29.33" height="3" transform="translate(128.32 -201.01) rotate(37.03)"/><rect class="cls-10" x="338.83" y="136.64" width="29.33" height="3" transform="translate(130.42 -197.95) rotate(37.03)"/><rect class="cls-10" x="327.44" y="151.75" width="29.33" height="3" transform="translate(137.21 -188.04) rotate(37.03)"/><rect class="cls-10" x="323.92" y="156.4" width="29.33" height="3" transform="translate(139.31 -184.99) rotate(37.03)"/><rect class="cls-10" x="312.53" y="171.5" width="29.33" height="3" transform="translate(146.11 -175.08) rotate(37.03)"/><rect class="cls-10" x="309.02" y="176.16" width="29.33" height="3" transform="translate(148.2 -172.02) rotate(37.03)"/><path class="cls-6" d="M330,141.19a1.42,1.42,0,0,0-1.61-1.21l-7.26,1-.78-5.58a1.43,1.43,0,0,0-2.83.39l1,7.17a1.42,1.42,0,0,0,2.3.92,1.41,1.41,0,0,0,.29,0l7.67-1.07A1.43,1.43,0,0,0,330,141.19Z" transform="translate(-24.09 -12.91)"/><path class="cls-6" d="M305.73,164.11l4.42-.61a1.48,1.48,0,0,0-.41-2.93l-4.42.62-.62-4.42a1.47,1.47,0,1,0-2.92.41l.62,4.42-4.42.62a1.47,1.47,0,0,0-1.26,1.67,1.46,1.46,0,0,0,.57,1,1.44,1.44,0,0,0,1.09.28l4.42-.62.62,4.42a1.47,1.47,0,0,0,.58,1,1.44,1.44,0,0,0,1.09.28,1.48,1.48,0,0,0,1.26-1.67Z" transform="translate(-24.09 -12.91)"/><rect class="cls-7" x="474.41" y="357.59" width="29" height="9.5"/><rect class="cls-9" x="437.41" y="357.59" width="29" height="9.5"/><path class="cls-5" d="M552.2,283.17s-6.91-6.71-9.32-6.4,3.45,7.43,9.12,8.76Z" transform="translate(-24.09 -12.91)"/><path class="cls-12" d="M550.57,281.39c-.82,1.3-1.62,2.57-2.35,3.88,20.9,12.54,32.19,16.81,56.26,12,3.68-.75,3.82-2.17,2.7-5,.5-.36.51-.34,0,0-1.11-2.86-2.08-2.92-5.66-2.16C578.1,295.05,572,290.73,550.57,281.39Z" transform="translate(-24.09 -12.91)"/><rect class="cls-5" x="527.62" y="268.58" width="70.67" height="99.18" transform="translate(-98.98 411.56) rotate(-38.94)"/><path class="cls-10" d="M554.25,326.49l-10.37,8.38L535.5,324.5l10.37-8.38Zm-10.07,5.57,7.26-5.87-5.87-7.26-7.26,5.86Z" transform="translate(-24.09 -12.91)"/><path class="cls-10" d="M537.13,306.89,528.32,314a1,1,0,0,1-1.41-.15l-7.12-8.82a1,1,0,0,1,.15-1.41l8.81-7.12a1,1,0,0,1,1.41.15l7.12,8.82A1,1,0,0,1,537.13,306.89Zm-9.29,4.94L535.1,306l-5.87-7.26L522,304.57Z" transform="translate(-24.09 -12.91)"/><path class="cls-10" d="M569.81,347.34,561,354.46a1,1,0,0,1-1.41-.15l-7.12-8.81a1,1,0,0,1,.15-1.41l8.81-7.12a1,1,0,0,1,1.41.15l7.12,8.81A1,1,0,0,1,569.81,347.34Zm-9.29,4.94,7.26-5.87-5.87-7.26L554.65,345Z" transform="translate(-24.09 -12.91)"/><rect class="cls-10" x="533.3" y="285.92" width="29.33" height="3" transform="translate(-82.99 395.31) rotate(-38.94)"/><rect class="cls-10" x="536.97" y="290.46" width="29.33" height="3" transform="translate(-85.03 398.62) rotate(-38.94)"/><rect class="cls-10" x="548.86" y="305.17" width="29.33" height="3" transform="translate(-91.63 409.36) rotate(-38.94)"/><rect class="cls-10" x="552.52" y="309.71" width="29.33" height="3" transform="translate(-93.67 412.67) rotate(-38.94)"/><rect class="cls-10" x="564.41" y="324.43" width="29.33" height="3" transform="translate(-100.28 423.41) rotate(-38.94)"/><rect class="cls-10" x="568.08" y="328.96" width="29.33" height="3" transform="translate(-102.31 426.73) rotate(-38.94)"/><path class="cls-6" d="M548.9,315.49a1.43,1.43,0,0,0-1.57,1.27l-.78,7.29-5.61-.6a1.43,1.43,0,1,0-.3,2.84l7.2.77a1.43,1.43,0,0,0,1.57-1.27,1.38,1.38,0,0,0-.12-.73,1.5,1.5,0,0,0,.06-.29l.82-7.7A1.44,1.44,0,0,0,548.9,315.49Z" transform="translate(-24.09 -12.91)"/><path class="cls-6" d="M564.74,335.1a1.43,1.43,0,0,0-1.57,1.27l-.78,7.28-5.61-.59a1.43,1.43,0,1,0-.3,2.84l7.2.76a1.39,1.39,0,0,0,1.05-.31,1.41,1.41,0,0,0,.52-1,1.38,1.38,0,0,0-.12-.73,1.36,1.36,0,0,0,.06-.29l.82-7.7A1.43,1.43,0,0,0,564.74,335.1Z" transform="translate(-24.09 -12.91)"/><path class="cls-6" d="M532.48,295.18a1.42,1.42,0,0,0-1.57,1.26l-.77,7.29-5.61-.6a1.43,1.43,0,0,0-.3,2.84l7.19.77a1.42,1.42,0,0,0,1.05-.31,1.45,1.45,0,0,0,.53-1,1.49,1.49,0,0,0-.13-.73c0-.1,0-.19.07-.29l.81-7.7A1.41,1.41,0,0,0,532.48,295.18Z" transform="translate(-24.09 -12.91)"/><path class="cls-5" d="M674.41,397.44a2.41,2.41,0,0,0,0-.38,1.87,1.87,0,0,0-2.09-1.62L659,397.08a1.87,1.87,0,0,0,.46,3.71l13.33-1.65A1.85,1.85,0,0,0,674.41,397.44Z" transform="translate(-24.09 -12.91)"/><path class="cls-13" d="M670.68,395.26s4.09-2.77,4.62-1.74,6.84,16.45,6.15,16.81c-2.35,1.24-9.4-10.65-9.62-12S670.08,395.64,670.68,395.26Z" transform="translate(-24.09 -12.91)"/><path class="cls-5" d="M600.15,454a1.64,1.64,0,0,0,.38,0,1.87,1.87,0,0,0,1.46-2.2l-2.68-13.16a1.87,1.87,0,1,0-3.66.74l2.68,13.16A1.86,1.86,0,0,0,600.15,454Z" transform="translate(-24.09 -12.91)"/><path class="cls-11" d="M596,446.34a51.6,51.6,0,0,0,6-.55c-5.92-31.64-10.4-74.11,5.43-103.69-4.8-2.35-9.64-4.66-14.48-6.94C581.37,360.93,591.23,419.12,596,446.34Z" transform="translate(-24.09 -12.91)"/><path class="cls-9" d="M667.2,401.19c-.23-2-.54-4-.93-5.93-46.81,6.09-64.81-8.06-54.64-57.65-5.28-1.42-10.58-2.74-15.88-4.07C591.17,389.29,614.26,407.54,667.2,401.19Z" transform="translate(-24.09 -12.91)"/><path class="cls-14" d="M596.87,267c1.84-1.09,4.72-1,6.2.46s.91,4.1-.61,5.62-6,1.54-7.47.06S594.54,268.37,596.87,267Z" transform="translate(-24.09 -12.91)"/><path class="cls-14" d="M621,276.37c2.53-3.4,8-5.44,12.17-3.81s5.33,6.88,3.78,10.82-8.34,7.85-14.68,5.87C618.08,287.93,617.84,280.67,621,276.37Z" transform="translate(-24.09 -12.91)"/><path class="cls-14" d="M617.8,274.13c1.85-2.56,5.83-4.14,8.77-3s3.74,5.05,2.58,8-7.27,5.57-10.21,4.42S615.45,277.36,617.8,274.13Z" transform="translate(-24.09 -12.91)"/><path class="cls-14" d="M604.51,267.86s5.75,4.45,9.47,4,5.66-1.1,9.23,2.18,6.75-1.57,9.35,2.86-4.57,15.74-12.45,11.51c-6.5-3.48-4.64-5.11-9.2-4.72a10.36,10.36,0,0,1-7.76-2.58C600.46,278.69,604.51,267.86,604.51,267.86Z" transform="translate(-24.09 -12.91)"/><path class="cls-5" d="M609.28,276.2c0,5.66-3.94,10.24-7.39,10.24s-5.12-4.58-5.12-10.24,2.8-8.52,6.26-8.52S609.28,270.55,609.28,276.2Z" transform="translate(-24.09 -12.91)"/><path class="cls-5" d="M611.82,278.15c0,1.31-1.3,3-2.25,3s-1.19-1.07-1.19-2.39.77-2.54,1.72-2.54A1.69,1.69,0,0,1,611.82,278.15Z" transform="translate(-24.09 -12.91)"/><path class="cls-14" d="M610.1,272.61s-1.19-3.62-4-4.93-8.28-1.08-9.46,3.93c0,0-.52,3.63,3.92,3.88s3.49-2,5.79,0,4.12.26,4.56.73Z" transform="translate(-24.09 -12.91)"/><path class="cls-13" d="M589.4,348a26.91,26.91,0,0,0,12.34-2.83A25.56,25.56,0,0,1,612,342.84c.79-11.31,2.66-41.12.88-46.62-2.22-6.82-6.18-9.71-6.18-9.71s-2.52,2.21-4.4,2.05-4,6.25-6.64,10.34-4.71,5.46-2.5,11.73C594.08,313.33,588.93,344.11,589.4,348Z" transform="translate(-24.09 -12.91)"/><path class="cls-5" d="M609,279.26l-5.9-.58c-.08.81-.7,8.51-.4,11.42.22.89,1.69,1.3,3.29.91,1.44-.35,2.48-1.22,2.52-2.05h0A79,79,0,0,1,609,279.26Z" transform="translate(-24.09 -12.91)"/><path class="cls-13" d="M602.49,451.51s1.16,4.8,0,4.94-17.8.63-17.9-.14c-.33-2.63,13.28-5.07,14.61-4.8S602.34,450.81,602.49,451.51Z" transform="translate(-24.09 -12.91)"/><path class="cls-15" d="M567.81,314.22s-7.83-6.41-10.32-5.87,4.27,7.47,10.32,8.36Z" transform="translate(-24.09 -12.91)"/><path class="cls-12" d="M567,313.26c-.64,1.39-1.32,2.85-2,4.1,24.36,11.29,42.28,13.54,48.35-16.38.93-4.58-1-3.76-3-5.22-3.3.56-4.14-.14-4.73,4.14C601.76,327.89,588.06,319.24,567,313.26Z" transform="translate(-24.09 -12.91)"/><path class="cls-16" d="M95.72,393a1.85,1.85,0,0,1-.21-.33,2,2,0,0,1,.85-2.65L109,383.57a2,2,0,0,1,1.79,3.51l-12.62,6.44A2,2,0,0,1,95.72,393Z" transform="translate(-24.09 -12.91)"/><path class="cls-13" d="M98.72,389.13s-5-1.34-5.2-.12-1.1,18.75-.29,18.87c2.77.41,5.66-13.87,5.41-15.28S99.45,389.31,98.72,389.13Z" transform="translate(-24.09 -12.91)"/><path class="cls-5" d="M204.86,255.73s7-7.38,9.53-7.16-3.3,8-9.21,9.64Z" transform="translate(-24.09 -12.91)"/><path class="cls-12" d="M207.7,252.59c.73,1.47,1.5,2.87,2.23,4.28-22.23,12.29-37.48,11.16-56-5.48-2.83-2.54-2.3-3.77,0-5.92-.13-.57-.17-.54,0,0,2.35-2.14,3.35-2,6.23.57C179,262.91,184,260.9,207.7,252.59Z" transform="translate(-24.09 -12.91)"/><path class="cls-16" d="M162.77,414.88a2.58,2.58,0,0,1-.39,0,2,2,0,0,1-1.54-2.32l2.82-13.88a2,2,0,1,1,3.86.78L164.7,413.3A2,2,0,0,1,162.77,414.88Z" transform="translate(-24.09 -12.91)"/><path class="cls-17" d="M167.1,406.81a52.94,52.94,0,0,1-6.27-.58c6.24-33.36,11-78.13-5.72-109.31q7.6-3.72,15.26-7.32C182.57,316.77,172.18,378.11,167.1,406.81Z" transform="translate(-24.09 -12.91)"/><path class="cls-9" d="M105.45,391.59c-1.23-1.8-2.41-3.63-3.48-5.53,39.2-22.09,61.36-46,48.63-93.75,5.62-1.45,11.28-2.8,17-4C171.12,342.88,150.24,365.34,105.45,391.59Z" transform="translate(-24.09 -12.91)"/><path class="cls-13" d="M160.31,412.26s-1.22,5.06,0,5.21,18.76.67,18.87-.15c.35-2.77-14-5.34-15.4-5.06S160.47,411.53,160.31,412.26Z" transform="translate(-24.09 -12.91)"/><path class="cls-13" d="M149.92,300.21c2.71-1.08,6.64-2.12,13.49-2.41a63.56,63.56,0,0,1,11.16.35c-12-25.71-14-38.52-13-45.74a10,10,0,0,0-3.75-9.42l-1.13-.87a8.89,8.89,0,0,0-14.14,5.34,54.25,54.25,0,0,0-.89,7.44C141,268.17,142.77,282.61,149.92,300.21Z" transform="translate(-24.09 -12.91)"/><path class="cls-16" d="M148.11,232.89c4.23,4.19,10.58,4.64,13.15,2.06s.36-7.24-3.87-11.43-8.47-4.23-11-1.64S143.88,228.7,148.11,232.89Z" transform="translate(-24.09 -12.91)"/><path class="cls-16" d="M148.67,231.25l6.23-.61c.08.85.74,9,.42,12-.23.94-1.78,1.38-3.47,1-1.51-.37-2.61-1.29-2.65-2.16h0A82.45,82.45,0,0,0,148.67,231.25Z" transform="translate(-24.09 -12.91)"/><path class="cls-14" d="M161.1,228.45l-.19.15c-.93.81-5.17,4.56-5.23,6.66-.06,2.36,2.41-1.43,3-3.07s1.83-1.7,2.8-2.23S162.69,228,161.1,228.45Z" transform="translate(-24.09 -12.91)"/><rect class="cls-5" x="156.48" y="237.57" width="70.67" height="99.18" transform="translate(71.84 -57.51) rotate(17.62)"/><path class="cls-10" d="M180.08,284.48l-12.71-4,4-12.71,12.7,4Zm-10.2-5.33,8.9,2.82,2.82-8.89-8.89-2.83Z" transform="translate(-24.09 -12.91)"/><path class="cls-10" d="M187,259.4,176.19,256a1,1,0,0,1-.65-1.26l3.44-10.8a1,1,0,0,1,1.25-.65l10.8,3.43a1,1,0,0,1,.65,1.26l-3.43,10.8A1,1,0,0,1,187,259.4Zm-9.25-5,8.9,2.82,2.82-8.89-8.89-2.83Z" transform="translate(-24.09 -12.91)"/><path class="cls-10" d="M171.25,309l-10.8-3.43a1,1,0,0,1-.65-1.26l3.43-10.8a1,1,0,0,1,1.26-.65l10.8,3.43a1,1,0,0,1,.65,1.26l-3.43,10.8A1,1,0,0,1,171.25,309Zm-9.24-5,8.9,2.82,2.82-8.89L164.84,295Z" transform="translate(-24.09 -12.91)"/><rect class="cls-10" x="194.55" y="256.21" width="29.33" height="3" transform="translate(63.74 -64.16) rotate(17.62)"/><rect class="cls-10" x="192.78" y="261.77" width="29.33" height="3" transform="translate(65.34 -63.36) rotate(17.62)"/><rect class="cls-10" x="187.06" y="279.8" width="29.33" height="3" transform="translate(70.53 -60.78) rotate(17.62)"/><rect class="cls-10" x="185.29" y="285.36" width="29.33" height="3" transform="translate(72.13 -59.99) rotate(17.62)"/><rect class="cls-10" x="179.56" y="303.39" width="29.33" height="3" transform="translate(77.32 -57.41) rotate(17.62)"/><rect class="cls-10" x="177.8" y="308.95" width="29.33" height="3" transform="translate(78.92 -56.61) rotate(17.62)"/><path class="cls-6" d="M194,249.62a1.42,1.42,0,0,0-1.92-.61l-6.51,3.37-2.59-5a1.43,1.43,0,0,0-2.54,1.32l3.33,6.42a1.43,1.43,0,0,0,.84.71,1.41,1.41,0,0,0,1.08-.09,1.36,1.36,0,0,0,.55-.51,1.62,1.62,0,0,0,.28-.11l6.87-3.56A1.42,1.42,0,0,0,194,249.62Z" transform="translate(-24.09 -12.91)"/><path class="cls-6" d="M171,303.64l4-2.05a1.47,1.47,0,1,0-1.35-2.62l-4,2-2-4a1.48,1.48,0,1,0-2.62,1.36l2.05,4-4,2.05a1.47,1.47,0,0,0-.63,2,1.44,1.44,0,0,0,.86.73,1.49,1.49,0,0,0,1.13-.1l4-2.05,2.05,4a1.49,1.49,0,0,0,2,.64,1.47,1.47,0,0,0,.63-2Z" transform="translate(-24.09 -12.91)"/><path class="cls-6" d="M179,278.62l4-2.05a1.48,1.48,0,1,0-1.36-2.62l-4,2.05-2.05-4a1.48,1.48,0,0,0-2.63,1.36l2.06,4-4,2.05a1.49,1.49,0,0,0-.63,2,1.49,1.49,0,0,0,2,.64l4-2.06,2.06,4a1.49,1.49,0,0,0,2,.63,1.48,1.48,0,0,0,.63-2Z" transform="translate(-24.09 -12.91)"/><path class="cls-16" d="M181.33,276.9s9.31-5.18,11.8-4.17-5.82,7-12.27,6.75Z" transform="translate(-24.09 -12.91)"/><path class="cls-12" d="M183.16,275.18c.39,1.62.78,3.24,1.2,4.7-26.72,6.46-47.55,1.6-41.38-29.8,1-4.8,1.92-3.79,4.78-3.34.69-.37.42-.33,0,0,2.86.45,4.46,1,3.25,5.36C143.1,280.35,161.82,276.48,183.16,275.18Z" transform="translate(-24.09 -12.91)"/><path class="cls-14" d="M144.8,230.84s-1.82-3.58-.7-6.68,5.34-7,10-4.18c0,0,3.1,2.32,0,5.82s-4.1,1.12-4.3,4.34-2.86,3.28-2.83,4Z" transform="translate(-24.09 -12.91)"/><path class="cls-16" d="M147.68,236.24c1,1,3.21,1.24,3.92.53s.08-1.68-.9-2.66-2.48-1.31-3.19-.59A1.78,1.78,0,0,0,147.68,236.24Z" transform="translate(-24.09 -12.91)"/><path class="cls-14" d="M151.44,233.92c.69-1.17,1.72-.48,4.15.27s6.21-.41,5.38-5.52c-.52-3.26,2.43,1.61,2.44,1.62.93,2.56.57,4.31-1,5.84-2.09,2.12-6,2.74-9.94,1.43C151.68,236.39,151,234.71,151.44,233.92Z" transform="translate(-24.09 -12.91)"/><path class="cls-18" d="M169,91.82a2.31,2.31,0,0,1,0-.37,1.86,1.86,0,0,1,2.17-1.5l13.22,2.42a1.87,1.87,0,1,1-.68,3.68l-13.21-2.43A1.87,1.87,0,0,1,169,91.82Z" transform="translate(-24.09 -12.91)"/><path class="cls-6" d="M173.29,90.16s-2.49-4.26-3.42-3.56-13.28,11.87-12.82,12.5c1.59,2.13,13.09-5.54,13.87-6.66S173.66,90.77,173.29,90.16Z" transform="translate(-24.09 -12.91)"/><path class="cls-18" d="M298.28,100a2.42,2.42,0,0,1-.36-.1,1.87,1.87,0,0,1-1.05-2.42l4.93-12.5a1.87,1.87,0,1,1,3.47,1.37l-4.93,12.5A1.86,1.86,0,0,1,298.28,100Z" transform="translate(-24.09 -12.91)"/><path class="cls-6" d="M295.74,97.6s-1.06,4.82.1,4.93,17.81.29,17.89-.49c.29-2.64-13.37-4.8-14.7-4.51S295.88,96.9,295.74,97.6Z" transform="translate(-24.09 -12.91)"/><path class="cls-19" d="M303.47,96l-6.23-3.2c5.6-10.88,12.42-28.6,10-33.95a1.18,1.18,0,0,0-.89-.81c-8.65-2.31-26.36,10.83-33.16,14.53L268.05,62.4c2.75-1.5,27.25-14.54,40.14-11.11A8.15,8.15,0,0,1,313.68,56C318.25,66.34,306,91.15,303.47,96Z" transform="translate(-24.09 -12.91)"/><path class="cls-18" d="M329.14,86.72s6.17,7.39,5.69,9.77-7.16-4-8.06-9.74Z" transform="translate(-24.09 -12.91)"/><path class="cls-20" d="M329.87,86.28a40.09,40.09,0,0,1-3.43,3.12c-16.75-21.34-21.7-28-24.53-54.84-.43-4.11,1.29-4.39,4.27-3.76.19-.74.18-.75,0,0,3,.63,3,1.83,3.35,5.5C311.77,60.26,316.54,66.33,329.87,86.28Z" transform="translate(-24.09 -12.91)"/><path class="cls-8" d="M175.64,96.61c.18-2,.46-4,.83-6.07C213.6,97.1,250.16,100,261.68,58q7.86,1.85,15.69,3.88C258,107.86,219.77,106.19,175.64,96.61Z" transform="translate(-24.09 -12.91)"/><path class="cls-14" d="M330.63,25.38a4.86,4.86,0,0,0-4.7-2.87c-1.91.25-3,2.33-2.73,4.13s3.43,4.12,5.33,3.87S331.52,27.52,330.63,25.38Z" transform="translate(-24.09 -12.91)"/><path class="cls-14" d="M316.71,25.21c.85-4.16-1.32-9.62-5.28-11.61s-8.69.63-10.58,4.4-.29,11.45,5.42,14.86C310.07,35.13,315.64,30.47,316.71,25.21Z" transform="translate(-24.09 -12.91)"/><path class="cls-14" d="M320.54,26.13c.67-3.09-.81-7.1-3.63-8.52s-6.26.58-7.68,3.41.7,9.13,3.52,10.55S319.7,30,320.54,26.13Z" transform="translate(-24.09 -12.91)"/><path class="cls-18" d="M315.77,24.18c-3.44,4.48-3.12,10.51-.38,12.62s6.85-.51,10.29-5,3-8.46.25-10.57S319.22,19.7,315.77,24.18Z" transform="translate(-24.09 -12.91)"/><path class="cls-18" d="M312.57,24.17c-.8,1-.79,3.17,0,3.75s1.6-.12,2.4-1.16.94-2.49.19-3.07A1.7,1.7,0,0,0,312.57,24.17Z" transform="translate(-24.09 -12.91)"/><path class="cls-14" d="M317.32,20.83s3.16-2.14,6.2-1.45,7.22,4.2,5.1,8.89c0,0-1.81,3.19-5.47.68s-1.54-3.72-4.59-3.53-3.43-2.31-4.06-2.2Z" transform="translate(-24.09 -12.91)"/><path class="cls-13" d="M275.22,76c-4.29-1.9-6.14-4.85-8.44-8.66-1.76-2.93-5-5.6-6.68-8.43,2.64-16.43,23.42-29,34.36-31.16,9.61-1.87,14.27-.37,15.47,6.71,0,.06.44,4.07-8.05,9-4.82,2.79-4.14,2.9-12.43,6.28C285.88,51.13,276.63,69.59,275.22,76Z" transform="translate(-24.09 -12.91)"/><path class="cls-18" d="M315.93,26.11l2.25,5.49c-.75.31-7.94,3.12-10.81,3.67-.92,0-1.73-1.24-1.82-2.88-.08-1.48.45-2.73,1.23-3h0A78.18,78.18,0,0,0,315.93,26.11Z" transform="translate(-24.09 -12.91)"/><path class="cls-18" d="M321.75,95s9.5,3.46,10.31,5.87-8.6.15-12.45-4.6Z" transform="translate(-24.09 -12.91)"/><path class="cls-20" d="M322.74,94.61a43.4,43.4,0,0,1-3,3.81c-25.12-27.2-25.7-30.88-26.09-66.2-.06-5.4,7.67-4.82,7,3.94C298.33,66.91,302.47,69.26,322.74,94.61Z" transform="translate(-24.09 -12.91)"/><rect class="cls-10" x="278.78" y="237.26" width="50.27" height="50.27"/><path class="cls-9" d="M341.28,266.37a3,3,0,0,0-4.31,0l-11,11.05-8.51-8.51a3,3,0,0,0-4.31,4.31L324,284.13a3,3,0,0,0,4.3,0,2.9,2.9,0,0,0,.78-1.38,2.32,2.32,0,0,0,.49-.4l11.68-11.67A3,3,0,0,0,341.28,266.37Z" transform="translate(-24.09 -12.91)"/><path class="cls-5" d="M41,454.49a1.64,1.64,0,0,1-.38,0,1.87,1.87,0,0,1-1.46-2.2l2.69-13.17a1.87,1.87,0,1,1,3.66.75L42.78,453A1.87,1.87,0,0,1,41,454.49Z" transform="translate(-24.09 -12.91)"/><path class="cls-13" d="M38.61,452s-1.16,4.8,0,4.94,17.81.64,17.91-.14c.33-2.63-13.28-5.07-14.62-4.8S38.76,451.31,38.61,452Z" transform="translate(-24.09 -12.91)"/><path class="cls-5" d="M79.11,246.6s-4.11-8.72-3-10.9,5.91,5.68,5.33,11.47Z" transform="translate(-24.09 -12.91)"/><path class="cls-12" d="M78,247.32c-.18-1.39,3.19-1.77,4.23-1.9,5.63,28.64,5,26.27-6.66,53.31-1.79,4.13-3.39,2.66-5.86.43-.52.56-.51.56,0,0-2.48-2.23-1.47-3,.44-6.67C82.68,268.42,81.56,273.91,78,247.32Z" transform="translate(-24.09 -12.91)"/><path class="cls-5" d="M83.84,454.45a2.33,2.33,0,0,1-.38,0,1.86,1.86,0,0,1-1.89-1.84l-.2-13.44a1.87,1.87,0,0,1,3.74,0l.2,13.44A1.88,1.88,0,0,1,83.84,454.45Z" transform="translate(-24.09 -12.91)"/><path class="cls-17" d="M86.37,445.88c-2,.5-3.9,1-5.89,1.33-1.21-36.14-2.71-70.72-14.84-105.63q7.59-2.64,15.25-5.1C89.82,372.31,85.17,409.67,86.37,445.88Z" transform="translate(-24.09 -12.91)"/><path class="cls-9" d="M45.71,445.31c-2.1,0-4.2,0-6.3-.1,8.41-33.15,20.7-81.63,23.38-110.17,5.33.67,10.66,1.41,16,2.28C69.11,376.13,52.28,404.13,45.71,445.31Z" transform="translate(-24.09 -12.91)"/><path class="cls-13" d="M81.53,451.87s-1.16,4.81,0,4.94,17.81.64,17.91-.13c.33-2.64-13.28-5.07-14.62-4.81S81.68,451.18,81.53,451.87Z" transform="translate(-24.09 -12.91)"/><path class="cls-13" d="M61.06,340.85c4.43.15,7.77,1.29,12.08,2.82,2.93,1,7,2.93,9.77,4.22-.58-21.22-.34-30.49-6.83-48.76-3.24-9.12-8.42-8.91-8.74-9-6-1-11.32,2.36-10.39,9,.31,2.23.8,2.85,1.95,5.79C64.38,318.9,62.26,326.46,61.06,340.85Z" transform="translate(-24.09 -12.91)"/><path class="cls-5" d="M42.28,248.71s2.06-9.91.44-11.87-4.66,7.24-2.65,13Z" transform="translate(-24.09 -12.91)"/><path class="cls-5" d="M59.23,280c2.13,5.24,7.5,8,10.7,6.69s3-6.17.88-11.41-5.8-6.84-9-5.54S57.09,274.79,59.23,280Z" transform="translate(-24.09 -12.91)"/><path class="cls-14" d="M57.11,277s-.26-3.8,1.87-6.08,7.27-4.13,10.26.07c0,0,1.84,3.17-2.18,5.07s-4-.55-5.36,2.19-3.72,1.79-4,2.4Z" transform="translate(-24.09 -12.91)"/><path class="cls-5" d="M60.14,280.21l5.91-.57c.08.81.7,8.51.4,11.42-.22.89-1.7,1.3-3.3.91-1.43-.35-2.48-1.22-2.52-2.05h0A79.36,79.36,0,0,0,60.14,280.21Z" transform="translate(-24.09 -12.91)"/><path class="cls-5" d="M57.6,282.79c.5,1.22,2.34,2.29,3.22,1.93s.71-1.44.21-2.66-1.68-2.07-2.56-1.71A1.7,1.7,0,0,0,57.6,282.79Z" transform="translate(-24.09 -12.91)"/><path class="cls-14" d="M71.79,284.33a1.66,1.66,0,0,1,0,2.53c-1.34,1.41-3.61.34-3.54-.59s1.22-.4,1.74-.94S71.43,283.89,71.79,284.33Z" transform="translate(-24.09 -12.91)"/><path class="cls-12" d="M42.91,247.61c-.18-1.26-3.41-1-4.47-.66,2.83,26.65,2.86,30.12,18.26,53,2.35,3.5,8.86-.65,3.77-7.35C46.09,273.66,46.31,271.8,42.91,247.61Z" transform="translate(-24.09 -12.91)"/><rect class="cls-5" y="125.83" width="70.67" height="99.18"/><path class="cls-10" d="M47.42,189.33H34.09V176H47.42Zm-11.33-2h9.33V178H36.09Z" transform="translate(-24.09 -12.91)"/><path class="cls-10" d="M46.42,163.33H35.09a1,1,0,0,1-1-1V151a1,1,0,0,1,1-1H46.42a1,1,0,0,1,1,1v11.33A1,1,0,0,1,46.42,163.33Zm-10.33-2h9.33V152H36.09Z" transform="translate(-24.09 -12.91)"/><path class="cls-10" d="M46.42,215.33H35.09a1,1,0,0,1-1-1V203a1,1,0,0,1,1-1H46.42a1,1,0,0,1,1,1v11.33A1,1,0,0,1,46.42,215.33Zm-10.33-2h9.33V204H36.09Z" transform="translate(-24.09 -12.91)"/><rect class="cls-10" x="28.33" y="140.59" width="29.33" height="3"/><rect class="cls-10" x="28.33" y="146.42" width="29.33" height="3"/><rect class="cls-10" x="28.33" y="165.34" width="29.33" height="3"/><rect class="cls-10" x="28.33" y="171.17" width="29.33" height="3"/><rect class="cls-10" x="28.33" y="190.09" width="29.33" height="3"/><rect class="cls-10" x="28.33" y="195.92" width="29.33" height="3"/><path class="cls-6" d="M50.17,177.42a1.42,1.42,0,0,0-2,0L43,182.6l-4-4a1.43,1.43,0,1,0-2,2l5.12,5.12a1.42,1.42,0,0,0,1,.42,1.43,1.43,0,0,0,1-.42,1.45,1.45,0,0,0,.36-.65.83.83,0,0,0,.23-.19l5.48-5.47A1.42,1.42,0,0,0,50.17,177.42Z" transform="translate(-24.09 -12.91)"/><path class="cls-6" d="M44.6,210.33l3.16-3.15a1.49,1.49,0,0,0,0-2.09,1.47,1.47,0,0,0-2.09,0l-3.16,3.15-3.15-3.15a1.48,1.48,0,1,0-2.09,2.09l3.15,3.15-3.15,3.16a1.47,1.47,0,0,0,0,2.09,1.45,1.45,0,0,0,1,.43,1.48,1.48,0,0,0,1-.43l3.15-3.16,3.16,3.16a1.45,1.45,0,0,0,1,.43,1.48,1.48,0,0,0,1-.43,1.49,1.49,0,0,0,0-2.09Z" transform="translate(-24.09 -12.91)"/></svg>